<?xml version="1.0" encoding="UTF-8" standalone="no"?>
<svg
   xmlns:dc="http://purl.org/dc/elements/1.1/"
   xmlns:cc="http://creativecommons.org/ns#"
   xmlns:rdf="http://www.w3.org/1999/02/22-rdf-syntax-ns#"
   xmlns:svg="http://www.w3.org/2000/svg"
   xmlns="http://www.w3.org/2000/svg"
   xmlns:sodipodi="http://sodipodi.sourceforge.net/DTD/sodipodi-0.dtd"
   xmlns:inkscape="http://www.inkscape.org/namespaces/inkscape"
   version="1.1"
   id="svg2"
   xml:space="preserve"
   width="3023.6133"
   height="3023.6133"
   viewBox="0 0 3023.6133 3023.6133"
   sodipodi:docname="OQ6UTW1.eps"><metadata
     id="metadata8"><rdf:RDF><cc:Work
         rdf:about=""><dc:format>image/svg+xml</dc:format><dc:type
           rdf:resource="http://purl.org/dc/dcmitype/StillImage" /></cc:Work></rdf:RDF></metadata><defs
     id="defs6" /><sodipodi:namedview
     pagecolor="#ffffff"
     bordercolor="#666666"
     borderopacity="1"
     objecttolerance="10"
     gridtolerance="10"
     guidetolerance="10"
     inkscape:pageopacity="0"
     inkscape:pageshadow="2"
     inkscape:window-width="640"
     inkscape:window-height="480"
     id="namedview4" /><g
     id="g10"
     inkscape:groupmode="layer"
     inkscape:label="ink_ext_XXXXXX"
     transform="matrix(1.3333333,0,0,-1.3333333,0,3023.6133)"><g
       id="g12"
       transform="scale(0.1)"><path
         d="M 0,0 H 22677.1 V 22677.1 H 0 Z"
         style="fill:#a5dcf0;fill-opacity:1;fill-rule:nonzero;stroke:none"
         id="path14" /><path
         d="m 20065.2,1687.5 c -87.5,17.5 -174.6,26.3 -260.7,27.8 23.6,67.5 43.2,137.3 57.6,209.5 167,836.6 -375.7,1650.2 -1212.3,1817.2 -713.2,142.4 -1409.3,-231.4 -1702.7,-862.9 -170.9,152.3 -383.1,262.6 -623.9,310.7 -526,105.1 -1041.1,-115.8 -1337.2,-522.8 -85.5,34.4 -175.1,61.7 -268.7,80.5 -814,162.5 -1605.5,-365.6 -1768,-1179.5 -125.7,-629.898 162.3,-1246.098 676.1,-1568 h 7579 c 146.6,778.602 -360.3,1532.1 -1139.2,1687.5"
         style="fill:#d8edee;fill-opacity:1;fill-rule:nonzero;stroke:none"
         id="path16" /><path
         d="m 1075.73,1734 c 13.77,4.6 27.23,9.6 40.4,14.9 2.76,-27.2 6.85,-54.2 11.98,-81 -16.29,23 -33.93,44.8 -52.38,66.1 z m 1966.13,-403.9 c -59.82,25.3 -120.83,42.3 -182.14,52.7 17.56,31 33.55,63.3 47.76,97 200.3,475.8 -23.06,1023.8 -498.88,1223.8 -261.68,110.4 -545.3,92.2 -780.72,-25.7 -50.15,266.2 -228.42,503 -496.72,616.1 C 805.273,3430.9 441.516,3345.5 208.926,3106.7 147.766,3165 77.7539,3215.5 0,3256.4 V 208.898 C 277.449,101.199 575.813,130.898 818.441,266.5 863.008,167.102 927.52,76.3984 1008.25,0 h 2294.46 c 72.62,72.6016 132.74,160 175,260.402 175,415.797 -20.16,894.698 -435.85,1069.698"
         style="fill:#d8edee;fill-opacity:1;fill-rule:nonzero;stroke:none"
         id="path18" /><path
         d="m 10808.5,9974.2 -1347.37,-8837.7 4175.77,292 -1589,8638.2 -1239.4,-92.5"
         style="fill:#d8edee;fill-opacity:1;fill-rule:nonzero;stroke:none"
         id="path20" /><path
         d="m 14363.3,594.402 c 127.2,350.297 48.6,724.998 -173.9,992.098 83.4,74 150.1,169.2 190.8,281.3 120.5,331.8 -28,695.6 -334,852.9 83,93.2 150.3,203.4 195.5,327.9 191.5,526.8 -80.4,1109 -607.2,1300.4 -526.9,191.4 -1109.1,-80.4 -1300.6,-607.3 -21.3,-58.8 -36.6,-118.2 -46.8,-177.7 -44.2,23.6 -90.5,44.5 -139.1,62.2 -561.9,204.1 -1183.2,-86 -1387.3,-648 -174.1,-479.1 11.3,-1000.9 417.9,-1271.1 -123.6,-102.3 -222.5,-237.7 -281.3,-399.4 C 10768.9,954.301 10867.4,574 11118.2,325.801 11085.3,270.203 11056.8,211 11034,148.102 11016.2,99.1016 11002.4,49.6016 10992.1,0 h 2793.2 c 259.3,102.703 475.3,311.602 578,594.402"
         style="fill:#d8edee;fill-opacity:1;fill-rule:nonzero;stroke:none"
         id="path22" /><path
         d="m 22677.1,3258.9 c -51.2,31.9 -105.9,59.8 -164.1,82.7 -516.2,202.7 -1099.1,-51.3 -1301.8,-567.6 -22.7,-57.6 -39.2,-116 -50.9,-174.6 -43.1,24.5 -88.4,46.4 -136,65 -550.6,216.3 -1172.5,-54.7 -1388.9,-605.4 -184.3,-469.6 -14.2,-990.4 381.1,-1268.102 C 19891.5,693 19790.2,561.602 19727.9,403 c -52.1,-132.5 -71,-269.898 -61.4,-403 h 3010.6 v 3258.9"
         style="fill:#d8edee;fill-opacity:1;fill-rule:nonzero;stroke:none"
         id="path24" /><path
         d="m 10340.7,3049 c 51.2,75.5 92.6,160.7 120.9,254 135.2,445.4 -75.3,903.7 -470.34,1023.5 -357.43,108.5 -743.36,-97.5 -913.6,-467.7 -332.44,10.3 -655.5,-231.1 -768.45,-603.1 -91.81,-302.6 -20.01,-611 161.76,-810.4 -161.76,-61.5 -299.33,-205.2 -357.74,-397.9 -94.27,-310.3 52.53,-629.7 327.68,-713.2 24.33,-7.4 48.81,-12.1 73.29,-15.4 -0.67,-2.1 -1.56,-4.1 -2.16,-6.2 -101.49,-333.998 56.47,-677.698 352.68,-767.6 296.27,-89.797 618.59,108.102 719.93,442 18.3,60.5 28.05,121.2 30.06,180.7 7.58,-2.5 14.95,-5.2 22.47,-7.5 473.72,-143.8 989.22,172.7 1151.42,707 148.2,488.5 -50.5,989.8 -447.9,1181.8"
         style="fill:#d8edee;fill-opacity:1;fill-rule:nonzero;stroke:none"
         id="path26" /><path
         d="m 10744.5,1507.3 c -22.2,829.8 -712.8,1484.3 -1542.51,1462.1 -285.19,-7.7 -549.77,-94.2 -773.13,-238.2 -0.08,5.8 0.07,11.5 -0.08,17.3 -21.28,795.8 -683.7,1423.6 -1479.45,1402.3 -531.54,-14.1 -987.86,-314.5 -1226.1,-749.5 -141.81,72 -302.98,110.7 -473.21,106.2 -503.35,-13.5 -908.55,-401 -957.43,-889.3 -167.26,61.4 -348.51,93.1 -537.35,88.1 C 2955.84,2684.9 2325.05,2019.6 2346.47,1220.1 2360.54,694.801 2652.65,242.5 3078.09,0 h 6489.6 C 10257,152.199 10764.1,775.5 10744.5,1507.3"
         style="fill:#d8edee;fill-opacity:1;fill-rule:nonzero;stroke:none"
         id="path28" /><path
         d="m 19247.9,1993.7 c -645.9,334.3 -1418.3,167.8 -1875,-358 -122.1,193.8 -295.5,358.6 -513.5,471.4 -476.5,246.5 -1032.6,176.8 -1429.7,-132.3 -72.6,56.7 -151.2,107.8 -236,151.7 -737.2,381.5 -1644,93.1 -2025.3,-644 -252,-487 -211.5,-1047.801 57.3,-1482.5 h 6725.9 c 326.5,740.402 24.8,1616.7 -703.7,1993.7"
         style="fill:#ffffff;fill-opacity:1;fill-rule:nonzero;stroke:none"
         id="path30" /><path
         d="m 1256.16,669.801 c 8.85,9.301 17.34,18.801 25.52,28.301 13.32,-20.102 27.68,-39.602 42.78,-58.5 -22.24,11.199 -45.08,21.101 -68.3,30.199 z M 3745.79,505.5 c -34.3,397.898 -384.67,692.7 -782.58,658.4 -57.29,-4.8 -112.05,-16.6 -164.43,-33.8 0.97,31.6 0.22,63.5 -2.61,95.7 -39.21,455.4 -440.1,792.7 -895.37,753.3 C 1650.21,1957.7 1435.47,1826.4 1299.61,1637 1150.58,1824.9 913.313,1937 656.387,1915 344.563,1887.9 94.7891,1671.1 11.0117,1387.9 7.36328,1389 3.64453,1389.6 0,1390.6 V 0 h 3595.5 c 107.96,138.801 166.59,316.5 150.29,505.5"
         style="fill:#ffffff;fill-opacity:1;fill-rule:nonzero;stroke:none"
         id="path32" /><path
         d="m 10974.7,8840.9 -1045.12,-6855 3238.92,226.5 -1232.5,6700.3 -961.3,-71.8"
         style="fill:#ffffff;fill-opacity:1;fill-rule:nonzero;stroke:none"
         id="path34" /><path
         d="m 14189.4,824.602 c 83.4,74 150.1,169.199 190.8,281.298 120.5,331.8 -28,695.6 -334,852.9 83,93.2 150.3,203.4 195.5,327.9 191.5,526.8 -80.4,1109 -607.2,1300.4 -526.9,191.5 -1109.1,-80.4 -1300.6,-607.3 -21.3,-58.8 -36.6,-118.2 -46.8,-177.7 -44.2,23.6 -90.5,44.5 -139.1,62.2 -561.9,204.1 -1183.2,-86 -1387.3,-648 -174.1,-479.1 11.3,-1000.9 417.9,-1270.999 C 11055,842.902 10956.1,707.5 10897.3,545.801 10831.1,363.699 10825.6,174.602 10869.8,0 h 3538.1 c 53.6,298.602 -31.2,599.699 -218.5,824.602"
         style="fill:#ffffff;fill-opacity:1;fill-rule:nonzero;stroke:none"
         id="path36" /><path
         d="m 22677.1,1542.6 c -424.1,192.7 -939.2,68.9 -1225.1,-322 -36.5,-50 -67.4,-102.2 -93.6,-155.9 -35.5,34.6 -73.7,67.3 -114.9,97.4 -477.6,349.3 -1148,245.4 -1497.2,-232.198 C 19542.7,651.398 19493.5,307.602 19582.2,0 h 3094.9 v 1542.6"
         style="fill:#ffffff;fill-opacity:1;fill-rule:nonzero;stroke:none"
         id="path38" /><path
         d="m 10606.1,319.102 c -4.7,63 -17.5,123.097 -37.1,179.398 8.1,0.301 15.9,0.5 23.7,1.102 493.8,36.296 860.8,517.198 819.8,1073.998 -37.6,509.1 -403.5,905.3 -843.3,941.4 20.6,88.9 28.5,183.3 21.3,280.5 -34.1,464.2 -395.5,815.9 -807.19,785.5 -372.62,-27.4 -658.48,-358.5 -684,-765.2 -313.91,-110 -528.34,-451.6 -499.85,-839.2 23.29,-315.4 201.26,-577.3 442.63,-697.9 -128.79,-115.6 -205.43,-299.2 -190.55,-500.001 23.81,-323.496 275.67,-568.597 562.5,-547.398 25.3,1.801 49.85,6.301 73.88,12 0.15,-2.102 0,-4.403 0.22,-6.602 6.25,-85 27.31,-164.699 59.75,-236.699 h 1006.71 c 40.4,95.8984 59.9,204.801 51.5,319.102"
         style="fill:#ffffff;fill-opacity:1;fill-rule:nonzero;stroke:none"
         id="path40" /><path
         d="m 11360.7,260.5 c -22.1,829.8 -712.7,1484.3 -1542.42,1462.1 -285.12,-7.6 -549.77,-94.2 -773.07,-238.2 -0.14,5.8 0,11.5 -0.14,17.3 -21.28,795.8 -683.62,1423.7 -1479.45,1402.3 -531.54,-14.1 -987.79,-314.5 -1226.1,-749.5 -141.81,72 -302.98,110.8 -473.21,106.2 -503.35,-13.5 -908.55,-401 -957.43,-889.3 -167.19,61.4 -348.44,93.1 -537.35,88.1 C 3581.14,1438.3 2955.92,787.5 2962.76,0 h 8382.14 c 12.4,84.8008 18.2,171.801 15.8,260.5"
         style="fill:#ffffff;fill-opacity:1;fill-rule:nonzero;stroke:none"
         id="path42" /><path
         d="m 20175.3,19124.4 c -89.8,-17.4 -173.7,-47.9 -250.4,-89 -2,12.9 -4.1,26 -6.6,38.9 -97.8,501.4 -583.6,828.6 -1085.1,730.7 -291.3,-56.8 -523.5,-244.8 -648,-490.4 -168.1,104.6 -374.6,148.5 -584.3,107.6 -320.9,-62.6 -560.2,-306.4 -633,-604.4 -93.1,16.6 -190.5,16.9 -288.8,-2.3 -371.2,-72.4 -629.9,-395.3 -635,-759 h 5170.3 c 26.1,116.6 29.4,240.1 5,364.8 -94.2,482.6 -561.6,797.4 -1044.1,703.1"
         style="fill:#ffffff;fill-opacity:1;fill-rule:nonzero;stroke:none"
         id="path44" /><path
         d="m 2872.29,17578.6 c 5.5,7.2 10.86,14.5 15.92,22 11.01,-13.3 22.7,-26 34.75,-38.3 -16.59,6.2 -33.56,11.6 -50.67,16.3 z m 1174.47,480.8 c -40.26,-7.9 -78.43,-20.3 -114.21,-36.6 -1.79,22.6 -4.69,45.2 -9.15,67.8 -62.5,320.3 -372.77,529.3 -693.08,466.8 -176.34,-34.4 -318.75,-144 -400.89,-288.8 -120.08,122.2 -297.09,183.6 -477.82,148.3 -219.42,-42.8 -380.28,-215.9 -418.15,-423.2 -68.38,11.8 -139.95,11.7 -212.05,-2.3 -235.27,-46 -409.82,-226.9 -459,-446.8 h 3399.67 c 0.52,35.2 -2.53,70.9 -9.53,106.8 -54.68,280 -325.88,462.6 -605.79,408"
         style="fill:#ffffff;fill-opacity:1;fill-rule:nonzero;stroke:none"
         id="path46" /><path
         d="m 6475.23,20319.3 c 4.24,5.6 8.48,11.3 12.43,17.1 8.55,-10.3 17.7,-20.3 27.08,-29.8 -12.87,4.8 -26.2,9 -39.51,12.7 z m 916.88,375.3 c -31.4,-6.2 -61.23,-15.8 -89.14,-28.5 -1.41,17.6 -3.72,35.2 -7.14,52.9 -48.81,250.1 -291.06,413.3 -541.14,364.4 -137.65,-26.8 -248.81,-112.3 -312.94,-225.4 -93.75,95.3 -231.92,143.3 -373.06,115.8 -171.28,-33.4 -296.87,-168.6 -326.41,-330.5 -53.43,9.3 -109.23,9.2 -165.55,-1.7 -183.71,-35.9 -319.94,-177.2 -358.41,-348.8 h 2654.14 c 0.37,27.4 -1.93,55.3 -7.44,83.3 -42.63,218.6 -254.39,361.1 -472.91,318.5"
         style="fill:#ffffff;fill-opacity:1;fill-rule:nonzero;stroke:none"
         id="path48" /><path
         d="m 11470.8,10490.3 c -585.8,-14.7 -1086.5,-674.7 -1074.6,-1144.1 11.9,-469.1 1160.5,-2245.1 1160.5,-2245.1 324.2,813.1 1056.8,1839.8 1045.2,2301 -11.7,461.3 -545.2,1103.1 -1131.1,1088.2"
         style="fill:#f05a2a;fill-opacity:1;fill-rule:nonzero;stroke:none"
         id="path50" /><path
         d="m 11471.8,10456.3 c -478.8,-12 -888,-551.5 -878.3,-934.7 9.7,-383.7 948.3,-1835 948.3,-1835 265,664.5 863.9,1503.5 854.4,1880.4 -9.7,377.1 -445.7,901.5 -924.4,889.3"
         style="fill:#f8ec3a;fill-opacity:1;fill-rule:nonzero;stroke:none"
         id="path52" /><path
         d="m 11471.6,10460.3 c -369,-9.3 -684.1,-424.9 -676.7,-720.4 7.4,-295.5 730.8,-1413.8 730.8,-1413.8 204.1,512 665.5,1158.4 658.2,1449 -7.3,290.4 -343.3,694.5 -712.3,685.2"
         style="fill:#ffffff;fill-opacity:1;fill-rule:nonzero;stroke:none"
         id="path54" /><path
         d="m 11027,10246.9 c -382.3,75.7 -803.4,-279.8 -864.1,-585.9 -60.6,-306.2 426.1,-1625.8 426.1,-1625.8 328.8,480.2 953.8,1039.7 1013.4,1340.8 59.6,300.9 -193.1,795.2 -575.4,870.9"
         style="fill:#f05a2a;fill-opacity:1;fill-rule:nonzero;stroke:none"
         id="path56" /><path
         d="m 11022.5,10224.7 c -312.4,62 -656.5,-228.4 -706,-478.7 -49.6,-250.4 348.3,-1328.9 348.3,-1328.9 268.6,392.6 779.4,849.9 828,1095.9 48.8,246 -157.8,649.8 -470.3,711.7"
         style="fill:#f8ec3a;fill-opacity:1;fill-rule:nonzero;stroke:none"
         id="path58" /><path
         d="m 11023,10227.1 c -240.7,47.9 -505.8,-176 -544.1,-368.8 -38.2,-192.8 268.4,-1023.9 268.4,-1023.9 207.1,302.4 600.7,654.8 638.2,844.4 37.6,189.6 -121.6,500.9 -362.5,548.3"
         style="fill:#ffffff;fill-opacity:1;fill-rule:nonzero;stroke:none"
         id="path60" /><path
         d="m 11201.9,10339.4 c -227.1,-98.6 -318.7,-436.5 -239.6,-618.2 79,-181.9 810.2,-695.4 810.2,-695.4 -1.9,369.7 122.5,887.9 44.8,1066.6 -77.7,178.8 -388.3,345.6 -615.4,247"
         style="fill:#f05a2a;fill-opacity:1;fill-rule:nonzero;stroke:none"
         id="path62" /><path
         d="m 11207.6,10326.3 c -185.5,-80.5 -260.3,-356.7 -195.7,-505.4 64.5,-148.7 662,-568.3 662,-568.3 -1.3,302.3 100,725.7 36.7,871.9 -63.5,146.1 -317.4,282.3 -503,201.8"
         style="fill:#f8ec3a;fill-opacity:1;fill-rule:nonzero;stroke:none"
         id="path64" /><path
         d="m 11207,10327.7 c -143,-61.9 -200.6,-274.8 -150.9,-389.4 49.8,-114.3 510.2,-437.8 510.2,-437.8 -1.1,232.9 77.2,559.2 28.2,671.8 -48.9,112.6 -244.5,217.5 -387.5,155.4"
         style="fill:#ffffff;fill-opacity:1;fill-rule:nonzero;stroke:none"
         id="path66" /><path
         d="m 10003,13231.6 c 0,0 -721.74,-413.2 -1078.32,-1144.3 -452.6,-927.6 -572.16,-2348.6 -396.13,-2438.9 176.05,-90.5 388.92,592.9 743.97,993.6 587.2,662.7 1093.78,623.1 1093.78,623.1 l -363.3,1966.5"
         style="fill:#c6421e;fill-opacity:1;fill-rule:nonzero;stroke:none"
         id="path68" /><path
         d="m 12730,13231.6 c 0,0 721.6,-413.2 1078.3,-1144.3 452.6,-927.6 572.1,-2348.6 396.1,-2438.9 -176.1,-90.5 -388.9,592.9 -744,993.6 -587.2,662.7 -1093.7,623.1 -1093.7,623.1 l 363.3,1966.5"
         style="fill:#aa290b;fill-opacity:1;fill-rule:nonzero;stroke:none"
         id="path70" /><path
         d="m 12424.9,10112.6 c 80.8,250.6 624.1,2016.6 624.1,4210.5 0,1814 -1047.7,2843.3 -1682,3352 -634.4,-508.7 -1682.06,-1538 -1682.06,-3352 0,-2193.9 543.26,-3959.9 624.16,-4210.5 h 2115.8"
         style="fill:#2b2b38;fill-opacity:1;fill-rule:nonzero;stroke:none"
         id="path72" /><path
         d="m 9237.48,15318.1 c 0,-2777.4 687.86,-4426.5 790.22,-4743.8 h 2678.5 c 102.5,317.3 790.3,1966.4 790.3,4743.8 0,1224.1 -376.9,2376.8 -850.5,3284.2 h -2558.1 c -473.56,-907.4 -850.42,-2060.1 -850.42,-3284.2"
         style="fill:#ffffff;fill-opacity:1;fill-rule:nonzero;stroke:none"
         id="path74" /><path
         d="m 11367,20304.6 c -375.1,-300.8 -864.2,-907.3 -1279.1,-1702.3 H 12646 c -414.9,795 -904,1401.5 -1279,1702.3"
         style="fill:#c6421e;fill-opacity:1;fill-rule:nonzero;stroke:none"
         id="path76" /><path
         d="m 12646,18602.3 h -1279 v -8028 h 1339.2 c 102.5,317.3 790.3,1966.4 790.3,4743.8 0,1224.1 -376.9,2376.8 -850.5,3284.2"
         style="fill:#f0f1f1;fill-opacity:1;fill-rule:nonzero;stroke:none"
         id="path78" /><path
         d="m 11366.8,17400 c -506.6,0 -917.4,-410.8 -917.4,-917.4 0,-506.5 410.8,-917.3 917.4,-917.3 506.7,0 917.4,410.8 917.4,917.3 0,506.6 -410.7,917.4 -917.4,917.4"
         style="fill:#a5dcf0;fill-opacity:1;fill-rule:nonzero;stroke:none"
         id="path80" /><path
         d="m 12104.2,16059.7 c -230.7,-407.2 -747.8,-550.4 -1155.1,-319.5 -407.2,230.7 -550.3,748.1 -319.4,1155.2 230.8,407.3 747.9,550.2 1155.1,319.4 407.3,-230.7 550.3,-748 319.4,-1155.1 m 209.1,-118.5 c 296.2,522.6 112.7,1186.4 -409.9,1482.7 -522.7,296.2 -1186.5,112.7 -1482.8,-410 -296.2,-522.7 -112.6,-1186.4 410,-1482.8 522.7,-296.1 1186.5,-112.6 1482.7,410.1"
         style="fill:#2b2b38;fill-opacity:1;fill-rule:nonzero;stroke:none"
         id="path82" /><path
         d="m 11366.1,15629.9 c -141.6,0 -285,35.5 -417,110.3 -407.2,230.7 -550.3,748.1 -319.4,1155.2 156,275.2 442.7,429.8 738,429.8 141.6,0 285.1,-35.6 417.1,-110.4 407.3,-230.7 550.3,-748 319.4,-1155.1 -156,-275.2 -442.8,-429.8 -738.1,-429.8 m 2.2,1583.2 c -153.3,0 -308,-46.5 -441.6,-143.2 -273.5,-198 -375,-545.4 -273.7,-849.5 0,0 261.1,328.7 498.1,500.2 229.8,166.4 668.1,343.6 668.1,343.6 -131.7,97.9 -290.5,148.9 -450.9,148.9"
         style="fill:#b9dfed;fill-opacity:1;fill-rule:nonzero;stroke:none"
         id="path84" /><path
         d="m 11366.2,15551.3 c -154.8,0 -311.7,38.8 -455.9,120.6 -444.9,252.2 -601.2,817.3 -349.1,1262.3 170.5,300.8 484,469.6 806.6,469.6 154.8,0 311.6,-38.8 455.8,-120.5 444.9,-252.4 601.3,-817.4 349,-1262.5 -170.4,-300.7 -483.8,-469.5 -806.4,-469.5 m 1.5,1773.9 c -295.3,0 -582,-154.6 -738,-429.8 -230.9,-407.1 -87.8,-924.5 319.4,-1155.2 132,-74.8 275.4,-110.3 417,-110.3 295.3,0 582.1,154.6 738.1,429.8 230.9,407.1 87.9,924.4 -319.4,1155.1 -132,74.8 -275.5,110.4 -417.1,110.4"
         style="fill:#63636d;fill-opacity:1;fill-rule:nonzero;stroke:none"
         id="path86" /><path
         d="m 10653,16220.4 c -101.3,304.1 0.2,651.5 273.7,849.5 133.6,96.7 288.3,143.2 441.6,143.2 160.4,0 319.2,-51 450.9,-148.9 0,0 -438.3,-177.2 -668.1,-343.6 -237,-171.5 -498.1,-500.2 -498.1,-500.2"
         style="fill:#dceff6;fill-opacity:1;fill-rule:nonzero;stroke:none"
         id="path88" /><path
         d="m 11372.8,12904 h -1.3 c -180.7,0 -301.2,-280 -301.2,-655.4 0,-375.6 40.1,-2608.4 301.2,-2608.4 h 0.6 0.7 c 260.9,0 301,2232.8 301,2608.4 0,375.4 -120.3,655.4 -301,655.4"
         style="fill:#c6421e;fill-opacity:1;fill-rule:nonzero;stroke:none"
         id="path90" /><path
         d="M 11366.8,18602.3 H 12646 c -414.9,795 -904,1401.5 -1279,1702.3 l -0.2,-0.2 v -1702.1"
         style="fill:#aa290b;fill-opacity:1;fill-rule:nonzero;stroke:none"
         id="path92" /><path
         d="m 11372.8,12904 h -0.7 V 9640.2 h 0.7 c 260.9,0 301,2232.8 301,2608.4 0,375.4 -120.3,655.4 -301,655.4"
         style="fill:#aa290b;fill-opacity:1;fill-rule:nonzero;stroke:none"
         id="path94" /></g></g></svg>
